<svg xmlns="http://www.w3.org/2000/svg" width="1400" height="900" viewBox="0 0 1400 900">
  <style>
    .title{font:700 34px Arial,sans-serif}.sub{font:20px Arial,sans-serif}.label{font:18px Arial,sans-serif}.small{font:15px Arial,sans-serif}.beam{fill:#d9dde3;stroke:#111;stroke-width:4}.rail{fill:#555;stroke:#111;stroke-width:2}.block{fill:#9aa4b2;stroke:#111;stroke-width:2}.plate{fill:#e8edf5;stroke:#111;stroke-width:3}.rack{fill:#333;stroke:#111;stroke-width:2}.motor{fill:#c9d7e8;stroke:#111;stroke-width:3}.dim{stroke:#111;stroke-width:2;marker-start:url(#a);marker-end:url(#a)}.dash{stroke:#555;stroke-width:2;stroke-dasharray:8 7;fill:none}.call{stroke:#222;stroke-width:2;fill:none;marker-end:url(#a)}
  </style>
  <defs><marker id="a" markerWidth="8" markerHeight="8" refX="4" refY="4" orient="auto"><path d="M0,0 L8,4 L0,8 z" fill="#111"/></marker></defs>
  <text x="55" y="55" class="title">SPX4300 4×8 — Single-Beam X Gantry Rev A</text>
  <text x="55" y="88" class="sub">Provisional architecture — physical measurements and exact purchased rail drawings required before DXF release</text>

  <text x="55" y="145" class="sub">Front view</text>
  <rect x="120" y="190" width="1060" height="220" rx="5" class="beam"/>
  <text x="475" y="315" class="label">6-inch-tall single rectangular steel beam</text>
  <rect x="170" y="225" width="960" height="18" class="rail"/>
  <rect x="170" y="355" width="960" height="18" class="rail"/>
  <text x="1185" y="237" class="small">Upper profile rail</text>
  <text x="1185" y="369" class="small">Lower profile rail</text>
  <rect x="560" y="205" width="85" height="55" rx="6" class="block"/>
  <rect x="685" y="205" width="85" height="55" rx="6" class="block"/>
  <rect x="560" y="338" width="85" height="55" rx="6" class="block"/>
  <rect x="685" y="338" width="85" height="55" rx="6" class="block"/>
  <rect x="525" y="175" width="280" height="280" rx="4" class="plate"/>
  <text x="585" y="300" class="label">1/4-inch</text>
  <text x="565" y="325" class="label">X carriage plate</text>
  <rect x="625" y="430" width="80" height="180" class="plate"/>
  <text x="720" y="530" class="label">Current Z on adapter plate</text>
  <line x1="705" y1="520" x2="900" y2="520" class="call"/>
  <rect x="590" y="610" width="150" height="28" rx="4" class="plate"/>
  <text x="760" y="633" class="label">Torch holder / future breakaway</text>

  <rect x="155" y="400" width="990" height="24" class="rack"/>
  <path d="M165 424 l10 14 l10 -14 l10 14 l10 -14 l10 14 l10 -14 l10 14 l10 -14 l10 14 l10 -14 l10 14 l10 -14 l10 14 l10 -14 l10 14 l10 -14 l10 14 l10 -14 l10 14 l10 -14 l10 14 l10 -14 l10 14 l10 -14 l10 14 l10 -14 l10 14 l10 -14 l10 14 l10 -14 l10 14 l10 -14 l10 14 l10 -14 l10 14 l10 -14 l10 14 l10 -14 l10 14 l10 -14 l10 14 l10 -14 l10 14 l10 -14 l10 14 l10 -14 l10 14 l10 -14 l10 14 l10 -14 l10 14 l10 -14 l10 14 l10 -14 l10 14 l10 -14 l10 14 l10 -14 l10 14 l10 -14 l10 14 l10 -14 l10 14 l10 -14 l10 14 l10 -14 l10 14 l10 -14 l10 14 l10 -14 l10 14 l10 -14 l10 14 l10 -14 l10 14 l10 -14 l10 14 l10 -14 l10 14 l10 -14 l10 14 l10 -14 l10 14 l10 -14 l10 14 l10 -14 l10 14 l10 -14 l10 14 l10 -14 l10 14 l10 -14 l10 14 l10 -14" fill="none" stroke="#111" stroke-width="2"/>
  <text x="1185" y="420" class="small">Existing rack on removable carrier, teeth down</text>
  <circle cx="820" cy="438" r="34" fill="#bbb" stroke="#111" stroke-width="3"/>
  <circle cx="820" cy="438" r="7" fill="#333"/>
  <rect x="825" y="470" width="105" height="105" rx="8" class="motor"/>
  <text x="935" y="520" class="small">Existing pinion and motor</text>
  <text x="935" y="541" class="small">on spring-loaded pivot plate</text>

  <rect x="65" y="180" width="45" height="250" class="plate"/>
  <rect x="1190" y="180" width="45" height="250" class="plate"/>
  <text x="32" y="465" class="small">Slotted end plate</text>
  <text x="1178" y="465" class="small">Slotted end plate</text>
  <line x1="85" y1="455" x2="85" y2="420" class="call"/>
  <line x1="1208" y1="455" x2="1208" y2="420" class="call"/>
  <line x1="120" y1="155" x2="1180" y2="155" class="dim"/>
  <text x="540" y="140" class="label">Reference beam length ≈ 62.82 in — verify physical mounting span</text>
  <line x1="90" y1="190" x2="90" y2="410" class="dim"/>
  <text x="15" y="310" class="label" transform="rotate(-90 15 310)">6.00 in nominal</text>

  <text x="55" y="715" class="sub">Side section</text>
  <rect x="150" y="755" width="250" height="110" class="beam"/>
  <rect x="130" y="772" width="18" height="18" class="rail"/>
  <rect x="130" y="830" width="18" height="18" class="rail"/>
  <rect x="90" y="750" width="38" height="120" class="plate"/>
  <rect x="205" y="865" width="150" height="18" class="rack"/>
  <circle cx="185" cy="875" r="28" fill="#bbb" stroke="#111" stroke-width="3"/>
  <rect x="90" y="700" width="95" height="48" class="motor"/>
  <path d="M138 748 Q150 790 185 847" class="dash"/>
  <text x="445" y="785" class="label">Two rail foundation bars aligned independently</text>
  <line x1="440" y1="790" x2="150" y2="780" class="call"/>
  <text x="445" y="825" class="label">Rack carrier bolts to beam; rack is not sacrificed</text>
  <line x1="440" y1="830" x2="355" y2="872" class="call"/>
  <text x="445" y="865" class="label">Pivot stop sets mesh; spring only maintains contact</text>
  <line x1="440" y1="870" x2="185" y2="875" class="call"/>

  <text x="950" y="730" class="sub">Fabrication boundary</text>
  <text x="950" y="770" class="label">In-house:</text>
  <text x="1030" y="770" class="label">tube, laser-cut plates, formed rack carrier, TIG welding, drilling/tapping</text>
  <text x="950" y="810" class="label">Purchased:</text>
  <text x="1045" y="810" class="label">profile rails/blocks, shoulder bolt, bushings/bearings, springs, hardware</text>
  <text x="950" y="850" class="label">Reused:</text>
  <text x="1025" y="850" class="label">rack, pinion, motor, cable chain, limit switch, current Z</text>
</svg>